<svg width="1024" height="1024" viewBox="0 0 1024 1024" fill="none" xmlns="http://www.w3.org/2000/svg">
  <defs>
    <filter id="shadow" x="72" y="88" width="880" height="876" filterUnits="userSpaceOnUse" color-interpolation-filters="sRGB">
      <feOffset dy="14"/>
      <feGaussianBlur stdDeviation="18"/>
      <feColorMatrix type="matrix" values="0 0 0 0 0.12 0 0 0 0 0.10 0 0 0 0 0.08 0 0 0 0.18 0"/>
      <feBlend in2="SourceGraphic" result="shape"/>
    </filter>
    <linearGradient id="outer" x1="512" y1="110" x2="512" y2="914" gradientUnits="userSpaceOnUse">
      <stop stop-color="#FBF8F3"/>
      <stop offset="1" stop-color="#ECE6DD"/>
    </linearGradient>
  </defs>

  <g filter="url(#shadow)">
    <rect x="92" y="96" width="840" height="840" rx="176" fill="url(#outer)"/>
    <rect x="92" y="96" width="840" height="840" rx="176" stroke="#D7D1C8" stroke-width="10"/>
  </g>

  <rect x="322" y="250" width="380" height="524" rx="76" fill="#FFFDFC" stroke="#D6D0C7" stroke-width="8"/>
  <path d="M600 250H640C673.137 250 700 276.863 700 310V350H660C626.863 350 600 323.137 600 290V250Z" fill="#EAE3DA"/>
  <rect x="390" y="392" width="244" height="28" rx="14" fill="#2F2C28" fill-opacity="0.88"/>
  <rect x="390" y="450" width="208" height="20" rx="10" fill="#7A746D" fill-opacity="0.62"/>
  <rect x="390" y="500" width="176" height="20" rx="10" fill="#7A746D" fill-opacity="0.62"/>
  <rect x="390" y="550" width="144" height="20" rx="10" fill="#7A746D" fill-opacity="0.62"/>
  <rect x="390" y="622" width="96" height="8" rx="4" fill="#4A443D" fill-opacity="0.10"/>
</svg>
